*******************************************************************************
                    The Being (1983) DVDRip - RadioResearch
*******************************************************************************

-------------------------------------------------------------------------------
                              General Information
-------------------------------------------------------------------------------
Type.................: Movie



Video Format.........: AVI
Video Bitrate........: 1512
Resolution...........: 720 x 404
Color................: 8 bit
FPS..................: 29.970
Source...............: DVD 16x9
Original Format......: NTSC
Genre................: Horror / Sci-Fi
IMDb Rating..........: 3.1
Movie Information....: http://www.imdb.com/title/tt0085224/

-------------------------------------------------------------------------------
                               Post Information
-------------------------------------------------------------------------------
Posted by............: RadioResearch
Posted on............: 5/12/2013

-------------------------------------------------------------------------------
                                 Release Notes
-------------------------------------------------------------------------------
SEEDBOX SUPPORTED!!

Toxic waste dumping in a small Idaho town turns a young boy into horrible mutant 
monster. The town's police chief and a government scientist team up to stop the 
monster, which is quickly killing off the town's citizenry. 

Some retro-schlock for an evening's enjoyment.  A bit of a rarity, so I 2-pass 
encoded for best quality.  This is right out of the "so bad it's good" 
collection.  Good for a laugh and to see some of these minor stars in their 
heyday.

Enjoy!

RadioResearch

General
Complete name                            : G:The Being (1983) DVDRip - 
RadioResearchTHE_BEING.{RadioResearch}.avi
Format                                   : AVI
Format/Info                              : Audio Video Interleave
File size                                : 886 MiB
Duration                                 : 1h 21mn
Overall bit rate                         : 1 512 Kbps
Movie name                               : THE_BEING.Title1.DVDRip
Writing application                      : Lavf53.32.100
Original source form/Name                : THE_BEING

Video
ID                                       : 0
Format                                   : MPEG-4 Visual
Format profile                           : Advanced Simple@L5
Format settings, BVOP                    : 2
Format settings, QPel                    : No
Format settings, GMC                     : No warppoints
Format settings, Matrix                  : Default (H.263)
Muxing mode                              : Packed bitstream
Codec ID                                 : XVID
Codec ID/Hint                            : XviD
Duration                                 : 1h 21mn
Bit rate                                 : 1 308 Kbps
Width                                    : 720 pixels
Height                                   : 404 pixels
Display aspect ratio                     : 16:9
Frame rate                               : 29.970 fps
Color space                              : YUV
Chroma subsampling                       : 4:2:0
Bit depth                                : 8 bits
Scan type                                : Progressive
Compression mode                         : Lossy
Bits/(Pixel*Frame)                       : 0.150
Stream size                              : 766 MiB (87%)
Writing library                          : XviD 64

Audio
ID                                       : 1
Format                                   : AC-3
Format/Info                              : Audio Coding 3
Mode extension                           : CM (complete main)
Format settings, Endianness              : Big
Codec ID                                 : 2000
Duration                                 : 1h 21mn
Bit rate mode                            : Constant
Bit rate                                 : 192 Kbps
Channel(s)                               : 2 channels
Channel positions                        : Front: L R
Sampling rate                            : 48.0 KHz
Bit depth                                : 16 bits
Compression mode                         : Lossy
Stream size                              : 113 MiB (13%)
Alignment                                : Aligned on interleaves
Interleave, duration                     : 32 ms (0.96 video frame)

AVI FILE MD5 HASH  c737cb1aab710ad1d598b718400680cb



-------------------------------------------------------------------------------
Generated with Cool NFO Creator - http://fly.to/coolbeans
-------------------------------------------------------------------------------
